<svg
  width="26"
  height="26"
  viewBox="0 0 26 26"
  xmlns="http://www.w3.org/2000/svg"
  fill="currentColor"
>
  <path d="M16.365 1.43c0 1.14-.463 2.2-1.207 3.03-.81.89-2.14 1.58-3.27 1.49-.14-1.07.44-2.18 1.16-2.98.8-.91 2.18-1.57 3.32-1.54ZM20.5 17.42c-.45 1.01-.66 1.46-1.24 2.35-.81 1.22-1.96 2.74-3.39 2.75-1.27.01-1.6-.83-3.33-.83s-2.1.82-3.35.84c-1.42.02-2.5-1.36-3.31-2.58-2.26-3.45-2.5-7.49-1.1-9.62.99-1.51 2.55-2.39 4.02-2.39 1.55 0 2.52.84 3.8.84 1.24 0 1.99-.84 3.78-.84 1.31 0 2.69.72 3.68 1.96-3.24 1.78-2.72 6.43.44 7.52Z"/>
</svg>
