<svg width="24"
  height="24"
  viewBox="0 0 24 24"
  fill="none"
  xmlns="http://www.w3.org/2000/svg"
>
  <path
    d="M23.49 12.27c0-.79-.07-1.54-.2-2.27H12v4.29h6.48a5.54 5.54 0 0 1-2.4 3.63v3.02h3.88c2.27-2.09 3.53-5.17 3.53-8.67Z"
    fill="#000"
  />
  <path
    d="M12 24c3.24 0 5.95-1.07 7.94-2.9l-3.88-3.02c-1.08.72-2.47 1.15-4.06 1.15-3.13 0-5.78-2.11-6.73-4.95H1.26v3.11A12 12 0 0 0 12 24Z"
    fill="#000"
  />
  <path
    d="M5.27 14.28A7.2 7.2 0 0 1 4.89 12c0-.79.14-1.56.38-2.28V6.61H1.26A12 12 0 0 0 0 12c0 1.94.47 3.77 1.26 5.39l4.01-3.11Z"
    fill="#000"
  />
  <path
    d="M12 4.77c1.77 0 3.35.61 4.6 1.8l3.45-3.45C17.94 1.19 15.23 0 12 0A12 12 0 0 0 1.26 6.61l4.01 3.11C6.22 6.88 8.87 4.77 12 4.77Z"
    fill="#000"
  />
</svg>
